# xmcd
#
# Track frame offsets: 
#        150
#        21033
#        41347
#        59018
#        78628
#        97958
#        115956
#        131815
#        147643
#        169591
#        189943
#
# Disc length: 2868 seconds
#
# Revision: 1
# Processed by: cddbd v1.5.2PL0 Copyright (c) Steve Scherf et al.
# Submitted via: ExactAudioCopyFreeDBPlugin 1.0
#
DISCID=960b320b
DTITLE=Lisa Lystam Family Band - Give You Everything
DYEAR=2016
DGENRE=Blues Rock
TTITLE0=Give You Everything
TTITLE1=Changes
TTITLE2=Mean Man
TTITLE3=Worship Me
TTITLE4=I'll Get By
TTITLE5=Get Up And Move
TTITLE6=Lately
TTITLE7=Try Try Try
TTITLE8=Something Is Wrong
TTITLE9=Really Got To Go
TTITLE10=Daniel
EXTD=
EXTT0=
EXTT1=
EXTT2=
EXTT3=
EXTT4=
EXTT5=
EXTT6=
EXTT7=
EXTT8=
EXTT9=
EXTT10=
PLAYORDER=
